<?xml version="1.0" standalone="no"?>
<!DOCTYPE svg PUBLIC "-//W3C//DTD SVG 20010904//EN"
 "http://www.w3.org/TR/2001/REC-SVG-20010904/DTD/svg10.dtd">
<svg version="1.0" xmlns="http://www.w3.org/2000/svg"
 width="512.000000pt" height="512.000000pt" viewBox="0 0 512.000000 512.000000"
 preserveAspectRatio="xMidYMid meet">
<metadata>
Created by potrace 1.14, written by Peter Selinger 2001-2017
</metadata>
<g transform="translate(0.000000,512.000000) scale(0.100000,-0.100000)"
fill="#000000" stroke="none">
<path d="M1795 3925 c-59 -21 -86 -61 -122 -177 -17 -57 -57 -188 -88 -293
-32 -104 -61 -193 -64 -197 -3 -4 -6 130 -6 296 0 290 -1 305 -20 326 -29 32
-63 46 -118 49 -53 3 -129 -28 -143 -57 -5 -9 -11 -78 -14 -152 l-5 -135 -60
0 -60 0 0 132 c-1 148 -11 174 -70 199 -76 32 -188 5 -213 -51 -15 -32 -17
-800 -3 -838 17 -45 68 -71 136 -70 69 0 115 21 136 60 9 16 13 71 13 169 l1
144 62 0 63 0 0 -140 c0 -159 9 -188 63 -216 61 -32 170 -20 201 21 9 13 19
11 68 -14 45 -23 67 -28 103 -25 70 6 93 26 117 108 l21 72 81 -1 81 0 23 -73
c21 -65 28 -75 62 -92 48 -25 108 -19 164 14 l40 24 36 -24 c65 -43 161 -38
217 11 27 22 28 27 33 146 l5 123 45 2 c131 6 201 29 262 85 20 19 44 48 52
64 15 28 16 17 16 -175 0 -232 2 -238 73 -270 74 -33 178 -9 209 48 8 15 13
63 14 126 1 56 2 106 3 111 0 6 28 12 62 13 85 3 117 10 174 36 102 48 159
136 167 259 1 20 5 37 8 37 5 0 72 -102 98 -150 7 -13 23 -40 35 -59 19 -31
21 -51 23 -185 1 -188 0 -179 23 -204 58 -67 207 -61 254 11 12 19 16 60 19
193 l4 169 122 200 c67 110 122 210 122 223 0 25 -15 59 -36 80 -24 23 -98 52
-137 52 -64 0 -87 -22 -157 -151 -35 -65 -67 -119 -70 -119 -3 0 -34 54 -69
119 -69 128 -93 151 -158 151 -45 0 -112 -29 -142 -61 l-21 -23 -29 22 c-64
47 -133 60 -318 62 -193 1 -231 -8 -257 -59 -9 -16 -16 -47 -16 -67 l0 -37
-29 40 c-37 51 -77 79 -144 103 -45 16 -78 19 -244 17 -186 -2 -192 -3 -217
-26 -14 -13 -29 -35 -34 -50 -5 -14 -8 -153 -8 -308 1 -154 -2 -279 -6 -277
-3 2 -20 50 -38 106 -17 57 -46 153 -65 213 -18 61 -44 144 -56 185 -25 86
-49 124 -88 145 -42 21 -139 27 -186 10z m836 -281 c16 -20 15 -89 -1 -109 -8
-9 -30 -15 -56 -15 l-44 0 0 70 0 70 44 0 c28 0 48 -6 57 -16z m673 0 c18 -18
21 -76 6 -105 -8 -15 -21 -19 -58 -19 l-48 0 2 68 c1 37 2 68 3 70 5 10 83 -1
95 -14z m-1414 -246 c0 -5 -7 -8 -15 -8 -17 0 -18 2 -9 25 5 13 8 14 15 3 5
-7 9 -16 9 -20z"/>
<path d="M89 2847 c-21 -5 -48 -20 -60 -34 l-24 -25 -3 -409 c-3 -458 -3 -457
65 -486 54 -22 359 -21 437 1 67 20 125 68 155 129 l20 42 1 -48 c0 -66 21
-101 70 -121 78 -31 171 -14 206 39 16 24 17 64 18 437 l0 410 -37 34 c-22 20
-48 34 -64 35 -16 1 -40 2 -55 3 -37 4 -101 -26 -122 -55 -14 -20 -16 -58 -17
-254 0 -163 -3 -223 -10 -205 -6 14 -19 35 -30 46 l-20 22 22 43 c30 57 36
189 12 246 -29 71 -81 118 -158 143 -46 15 -351 21 -406 7z m283 -275 c19 -19
-4 -42 -42 -42 -33 0 -37 3 -37 25 0 31 53 43 79 17z m15 -306 c11 -11 12 -90
1 -103 -6 -7 -29 -13 -53 -13 l-42 0 1 64 0 64 43 -2 c23 -1 46 -6 50 -10z"/>
<path d="M1063 2849 c-10 -4 -29 -19 -43 -34 l-25 -27 0 -418 0 -418 25 -27
25 -26 1 -312 c0 -172 4 -324 8 -339 21 -73 138 -86 182 -20 17 25 19 56 19
357 1 282 3 334 17 355 12 19 16 53 16 133 0 60 2 110 4 112 2 2 34 -57 72
-130 38 -74 79 -143 91 -155 63 -59 194 -17 237 75 21 45 16 63 -51 186 -33
62 -61 115 -61 119 0 3 15 21 34 39 47 46 77 119 81 199 l3 65 68 -2 c38 -1
71 -4 73 -6 2 -3 4 -143 5 -314 1 -294 2 -310 21 -331 60 -67 189 -67 250 0
19 21 20 38 22 319 1 163 2 304 2 314 1 14 11 17 66 17 44 0 74 5 90 16 l25
16 0 -318 c0 -342 1 -349 52 -387 37 -27 134 -35 174 -14 63 33 68 45 70 195
1 75 2 145 3 154 1 13 11 16 49 16 82 -1 77 9 75 -147 -1 -154 4 -173 56 -208
60 -40 168 -27 216 27 19 21 20 37 21 429 2 446 2 446 -58 477 -42 22 -134 22
-175 0 -51 -26 -60 -55 -60 -196 l0 -125 -62 -3 c-33 -2 -61 1 -62 5 -1 4 -2
64 -3 133 -1 100 -5 130 -19 151 -27 41 -76 56 -168 51 -14 -1 -42 -13 -62
-26 -29 -20 -37 -22 -41 -10 -13 34 -59 39 -343 39 -254 0 -282 -2 -307 -19
-16 -10 -33 -31 -39 -46 l-10 -28 -41 29 c-68 50 -130 62 -328 64 -97 0 -185
-2 -195 -6z m330 -278 c12 -12 12 -70 -1 -83 -18 -18 -102 -20 -103 -2 -3 51
-1 82 4 91 8 12 87 7 100 -6z"/>
<path d="M3125 2842 c-24 -10 -39 -26 -53 -55 -17 -39 -19 -70 -17 -433 1
-351 3 -394 18 -417 33 -51 66 -59 238 -59 209 0 277 19 356 99 l32 32 6 -28
c8 -39 45 -71 107 -92 l52 -17 1 -309 c1 -338 1 -339 62 -368 54 -26 111 -6
135 47 13 28 15 99 14 426 l-1 392 53 0 c33 0 54 -5 57 -12 2 -7 11 -39 20
-71 12 -45 23 -62 48 -78 35 -22 102 -23 151 -4 36 15 86 62 88 83 0 10 2 24
3 32 1 17 1 20 -53 195 -22 72 -70 229 -107 350 -37 121 -76 232 -86 246 -27
38 -91 61 -163 58 -109 -4 -142 -34 -186 -172 -17 -54 -33 -106 -35 -115 -4
-16 -27 -92 -77 -252 -11 -36 -23 -78 -28 -95 -5 -19 -9 40 -10 158 -1 103 -3
190 -4 195 -1 4 -6 26 -10 49 -15 82 -84 162 -171 199 -60 25 -69 26 -242 28
-119 1 -172 -2 -198 -12z m318 -271 c8 -8 11 -74 11 -200 0 -213 -2 -221 -65
-221 l-39 0 0 213 c0 118 2 216 5 219 9 9 76 1 88 -11z m667 -248 c0 -7 -6
-13 -14 -13 -9 0 -12 8 -8 26 3 19 7 22 13 12 5 -7 9 -19 9 -25z"/>
<path d="M4457 2849 c-80 -19 -137 -69 -137 -122 0 -15 54 -114 126 -234 l126
-208 2 -166 c1 -152 3 -169 21 -189 48 -54 156 -67 216 -27 54 36 59 55 59
227 l0 155 106 175 c127 210 144 242 144 273 0 81 -167 154 -241 105 -13 -8
-51 -64 -83 -124 -80 -147 -76 -144 -101 -96 -11 22 -31 62 -45 89 -69 135
-106 162 -193 142z"/>
</g>
</svg>
